PathFileType	4	(X/Y/Z)	Patient4_TMGait_0pt8_01_right_02.trc.trc
DataRate	CameraRate	NumFrames	NumMarkers	Units	OrigDataRate	OrigDataStartFrame	OrigNumFrames
86.956521739130	86.956521739130	6	33	mm	86.956521739130	89	       141
Frame#	Time	Sacral			L.Shoulder			Chest			R.Shoulder			Neck			R.ASIS			L.ASIS			R.Thigh.Superior			R.Thigh.Lateral			R.Thigh.Inferior			R.Patella			L.Thigh.Superior			L.Thigh.Lateral			L.Thigh.Inferior			L.Patella			L.Shank.Superior			L.Shank.Lateral			L.Shank.Inferior			R.Shank.Superior			R.Shank.Lateral			R.Shank.Inferior			R.Heel			R.Midfoot.Superior			R.Midfoot.Lateral			R.Toe			L.Heel			L.Midfoot.Lateral			L.Midfoot.Superior			L.Toe			L.Elbow			L.Wrist			R.Elbow			R.Wrist			
		X1	Y1	Z1	X2	Y2	Z2	X3	Y3	Z3	X4	Y4	Z4	X5	Y5	Z5	X6	Y6	Z6	X7	Y7	Z7	X8	Y8	Z8	X9	Y9	Z9	X10	Y10	Z10	X11	Y11	Z11	X12	Y12	Z12	X13	Y13	Z13	X14	Y14	Z14	X15	Y15	Z15	X16	Y16	Z16	X17	Y17	Z17	X18	Y18	Z18	X19	Y19	Z19	X20	Y20	Z20	X21	Y21	Z21	X22	Y22	Z22	X23	Y23	Z23	X24	Y24	Z24	X25	Y25	Z25	X26	Y26	Z26	X27	Y27	Z27	X28	Y28	Z28	X29	Y29	Z29	X30	Y30	Z30	X31	Y31	Z31	X32	Y32	Z32	X33	Y33	Z33	

89	2.902000000000	773.250935710491	1002.029046662285	447.113817167551	970.660475685458	1423.326606643184	275.034715586239	1066.891734871235	1348.791544605128	438.268859705286	983.055981622227	1428.322540266743	609.407414359051	966.307747868862	1484.651425511282	430.829571272743	994.114549319144	930.963344354031	570.833718398245	990.816767638785	950.270493788087	296.402249941099	1024.789302065205	724.681924070798	558.852139127311	934.324267146985	620.559138079593	619.560899063271	1018.242920293333	555.283243856535	555.268848772687	999.732069827276	446.327557130236	576.510403114733	1060.347608980623	761.781017148890	325.124985355065	990.595294645156	633.643948181825	265.422795183360	1088.048049529587	569.492597249244	328.238490597525	1099.494116242769	498.936781652092	337.227684037422	1075.731131785082	423.170322298183	330.901934627261	992.420296700566	303.206414786004	283.208238705081	1050.999211623689	195.972431954017	353.659941872307	914.864740443872	385.059687791080	577.224364131058	786.627174999079	360.958303022270	631.348335973407	763.072230927020	253.549190922792	582.018106148895	556.872881205610	210.288946819902	543.067698065570	718.524792649779	139.697896023417	593.356662344940	606.190941940378	144.362929034206	617.448039020370	771.941012901131	30.813800185304	618.331457579517	931.069525723922	38.445133167682	402.242321085619	1001.281076187726	35.907843247371	317.910003865458	1085.234427437486	97.271849658199	341.763710539658	1212.308321947058	46.333550066996	307.449821023328	883.028907505899	1079.859008458596	167.779454983272	912.200512352902	820.395265779306	168.693254951553	1011.120915108719	1081.071796972428	720.423083103960	1249.072573311449	1107.150435853464	652.674826663295	
90	2.913500000000	772.567881759436	1003.220736908762	444.482000111568	972.688733815094	1424.379865598110	272.963949754095	1067.022677884446	1349.973780840714	437.314951918115	981.380571991185	1429.706485842205	607.586224970197	966.676445202791	1485.888286811474	428.582322336545	993.178065707015	932.382418018651	569.346555445268	990.784134939845	951.481091651437	294.974691244949	1029.668825912441	728.389191699041	557.932457073796	942.620265744776	622.269084209503	618.949846746777	1028.458038210841	558.674417349326	554.723787825715	1011.804650456611	448.552447531961	576.265961601556	1058.207639383078	760.695446139902	322.459119765835	986.196506832794	633.652210767087	263.998622062112	1082.786649188509	568.388731091353	326.781934429879	1093.265498023554	497.984445020529	336.002297704696	1068.948418945317	422.507457723570	329.861666393896	984.834879558423	303.023137835447	282.535632274620	1042.551244199333	195.602824985545	353.218011103618	925.672442001109	387.620433092123	576.629166016039	796.510931960580	367.061043360552	630.424212858237	770.325108748009	260.263829095364	581.374807609527	563.858293652315	224.749840621540	541.791314205848	722.231332258593	146.657496744763	592.757696285600	609.869012948171	156.280581631783	616.302486228634	770.369730575312	32.152895008004	617.937843308257	921.806887328643	38.461137783764	402.158152328136	992.006850736043	35.838926135655	317.838697757450	1076.061591207774	97.140165415390	341.645744903645	1203.142593097456	45.912872812259	307.330051617068	891.844763458765	1079.488723165336	163.557924574650	931.852115489560	821.327117963586	164.984582445357	998.384560645378	1081.443378827460	718.873137354438	1239.179557611202	1089.013959500154	655.352843126385	
91	2.925000000000	771.758478898037	1004.344802414020	442.052918059985	974.676448436868	1425.320869841295	271.060581888738	1067.071222013193	1350.999067724782	436.503165495954	979.681880485989	1430.945116914622	605.925914363990	967.045376353746	1487.039438842843	426.487482358445	992.129886333564	933.767788519368	567.937274882496	990.521850147342	952.625524529406	293.579857341851	1034.261904342291	732.391022476721	556.836353808534	950.856067024578	624.390754470910	618.410028786102	1038.356142972386	562.581194070439	554.017699567982	1023.825163850975	451.380312087340	575.871661901751	1055.752717422864	759.688431912458	320.097982657542	981.698873706837	633.757947976249	262.609153202908	1077.328250980450	567.352376169723	325.424659905062	1086.827184804479	497.072106140116	334.803993193456	1062.006916954335	421.892389212007	328.848453889355	977.146899497408	302.863528019858	281.801166905095	1034.051317024112	195.267147551519	352.761305415561	936.687253338986	390.586718444880	575.957180046022	806.800602971586	372.976249924135	629.427423388296	778.444639232447	266.758866190472	580.558859683984	571.983248874902	237.572604139427	540.415168956850	727.392713616712	153.446949843867	591.797631621722	615.216139957225	167.119655295660	615.002744777649	771.196609051280	34.352669787740	617.195635748480	912.527847701320	38.500899635393	402.059549142964	982.722126835345	35.771510076353	317.761143298803	1066.895855767268	96.992321627117	341.519495005541	1193.973206325870	45.450421086860	307.228973284959	900.927248848261	1079.212530497417	159.335483973752	951.821986693147	822.822251729872	161.388825092765	985.825988200186	1082.081526085675	717.235033289238	1228.206569782756	1070.144283945021	658.353357408919	
92	2.936500000000	770.851395762308	1005.416360238760	439.814442072525	976.593027685967	1426.172833374190	269.331083079431	1067.041774463443	1351.880714847499	435.816464190058	977.996451349152	1432.042454053446	604.416557641809	967.413264127103	1488.111705660649	424.564088333121	990.986581845263	935.138986527477	566.579238687219	990.066089382583	953.718481097852	292.193105540807	1038.504989828596	736.665922759533	555.533427023650	958.948008078067	626.920927131699	617.935921748259	1047.872749077399	566.984019763490	553.190288664978	1035.728845248980	454.803072915493	575.419611415019	1053.057759562405	758.784546846336	318.033754348588	977.119771840178	633.951894206809	261.278016723221	1071.719379254027	566.378513068178	324.163822646897	1080.235489367045	496.206686591651	333.666037110491	1054.956410178170	421.331436083198	327.881707014883	969.382892859319	302.746233152686	281.033985957242	1025.518049172711	194.969970802431	352.300483294215	947.860201189353	393.936034243600	575.300083638375	817.415693251624	378.591414870173	628.415981823911	787.434428104678	272.859744448737	579.649493473730	581.139199421157	248.420903127395	539.011701068813	734.088741497273	159.784018992369	590.525302896749	622.229077407105	176.510018681339	613.599465730739	774.651887514240	37.289010729819	616.114141220883	903.238786870935	38.560413147101	401.946369787050	973.433300297964	35.711937790893	317.676193742097	1057.730184519448	96.843437761749	341.386643690491	1184.795345790230	44.988145151261	307.143130202688	910.289920187957	1079.063631694924	155.152486199819	972.017970163641	824.914902247162	157.935243611306	973.542050425809	1082.958185312490	715.546185653695	1216.040213796688	1050.779650390502	661.624731244700	
93	2.948000000000	769.867495245760	1006.453520013612	437.746925481575	978.415898281350	1426.964100123264	267.775435697111	1066.939868337293	1352.638310940700	435.237873485251	976.349175262642	1433.008424484045	603.041928556811	967.775456967228	1489.112625520505	422.825965825370	989.764065678425	936.515204266154	565.257985186949	989.458881336447	954.769366936837	290.805862516393	1042.362260881704	741.183153123329	554.026773484080	966.820499472782	629.837939980577	617.523638938316	1056.967742707723	571.847002719945	552.293903018749	1047.458888913867	458.799374616633	574.984703253412	1050.186915097132	757.980993957500	316.243478135002	972.456708430924	634.217106959052	260.027455168102	1065.986499629503	565.453215090209	322.995422353212	1073.522491806039	495.387360001123	332.616223951664	1047.823476469940	420.825884213216	326.978737765479	961.555948818307	302.679827543719	280.264902243374	1016.960522417422	194.712981412878	351.846933041910	959.151428795559	397.632823644476	574.733798595152	828.294662159367	383.792258923392	627.447691924816	797.292993485953	278.403042846431	578.723926160096	591.240963269123	257.058003179572	537.647935432392	742.371998083343	165.411428097311	589.028423748512	630.874861024590	184.164453798391	612.152686182561	780.856801685523	40.719149121379	614.757936289493	893.944424860677	38.634463673560	401.821586505341	964.144632846920	35.663518301247	317.584981834872	1048.557539831526	96.704954597957	341.249864527353	1175.604903200524	44.558037693989	307.068813403236	919.918193414523	1079.086219594705	151.049398954135	992.345773038920	827.642443998967	154.652169580980	961.609994140256	1084.040466602536	713.845271624758	1202.585074184289	1031.170294520136	665.110527731699	
94	2.959500000000	768.820853330440	1007.471766798723	435.827247794390	980.132193102349	1427.721022108907	266.388995907713	1066.772449214113	1353.292106342718	434.752691984720	974.754595784645	1433.855891181383	601.783888081470	968.125558074306	1490.047843412884	421.280548427252	988.477037253138	937.910761991856	563.973310971392	988.742998029829	955.779331495281	289.425678720283	1045.821981335624	745.902847447146	552.351150841239	974.406516646894	633.102773661816	617.172055289980	1065.617830073940	577.118625391006	551.385471878165	1058.961741912724	463.333747306293	574.619281895287	1047.190968083387	757.255346999406	314.696018031717	967.701250437261	634.534013052361	258.873873878622	1060.143065199136	564.558996770008	321.916665475333	1066.702645581432	494.607365896631	331.674155479138	1040.618449917838	420.372371992031	326.151835090625	953.670760333261	302.664363465048	279.521810609962	1008.381953725489	194.495020345875	351.411041609577	970.524084437119	401.627782630936	574.311077384383	839.389406570014	388.468486601608	626.575269315392	808.008027393280	283.244900347870	577.851884127777	602.228276914236	263.340628789565	536.384235163854	752.265962821969	170.116514924267	587.427584622525	641.098442249595	189.885120592537	610.731046609736	789.826913234215	44.325722696641	613.238090273219	884.647816929845	38.717674941040	401.690098443819	954.858766452979	35.626979975924	317.490214937411	1039.372529581974	96.583958573770	341.112408346365	1166.399515566259	44.180244708767	307.002578518263	929.767089613729	1079.325932319103	147.063294217065	1012.709387711733	831.040388651437	151.566569995873	950.090080879747	1085.290777366647	712.168387916345	1187.765016175458	1011.564117100680	668.752873219348	
